<svg id="DashboardCard" xmlns="http://www.w3.org/2000/svg" width="197" height="98" font-family="ArialMT,Arial,sans-serif">
    <rect id="background" color="#1c1c1c" x="0" y="0" width="197" height="98" fill="currentColor"/>
    <g id="foreground">
        <g color="#8f8f8f" transform="translate(98.5 7)">
            <text id="date" font-size="16" fill="currentColor" text-anchor="middle" dominant-baseline="hanging">Friday, 24 April</text>
        </g>
        <g color="#dedede" transform="translate(98.5 31)">
            <text id="time" font-size="30" fill="currentColor" text-anchor="middle" dominant-baseline="hanging">20:41</text>
        </g>
        <g color="#8f8f8f" transform="translate(18, 65)">
            <g transform="translate(0 0)">
                <svg xmlns="http://www.w3.org/2000/svg" width="23" height="23" viewBox="0 0 24 24"><path fill="currentColor" d="M12 21q-2.075 0-3.537-1.463T7 16q0-1.2.525-2.238T9 12V6q0-1.25.875-2.125T12 3t2.125.875T15 6v6q.95.725 1.475 1.763T17 16q0 2.075-1.463 3.538T12 21m0-2q1.25 0 2.125-.875T15 16q0-.725-.312-1.35T13.8 13.6L13 13V6q0-.425-.288-.712T12 5t-.712.288T11 6v7l-.8.6q-.575.425-.888 1.05T9 16q0 1.25.875 2.125T12 19m0-3"/></svg>
                <text id="temperature" x="20" y="5" font-size="16" fill="currentColor" dominant-baseline="hanging">22.5C</text>
            </g>
            <g transform="translate(95 0)">            
                <svg xmlns="http://www.w3.org/2000/svg" y="2" width="19" height="19" viewBox="0 0 24 24"><path fill="currentColor" d="M15.563 17.563Q16 17.125 16 16.5t-.437-1.062T14.5 15t-1.062.438T13 16.5t.438 1.063T14.5 18t1.063-.437m-6.113.387l6.5-6.5l-1.4-1.4l-6.5 6.5zm1.113-5.387Q11 12.125 11 11.5t-.437-1.062T9.5 10t-1.062.438T8 11.5t.438 1.063T9.5 13t1.063-.437M6.288 19.65Q4 17.3 4 13.8q0-2.5 1.988-5.437T12 2q4.025 3.425 6.013 6.363T20 13.8q0 3.5-2.287 5.85T12 22t-5.712-2.35M16.3 18.238Q18 16.475 18 13.8q0-1.825-1.513-4.125T12 4.65Q9.025 7.375 7.513 9.675T6 13.8q0 2.675 1.7 4.438T12 20t4.3-1.763M12 12"/></svg>
                <text id="humidity" x="21" y="5" font-size="16" fill="currentColor" dominant-baseline="hanging">36.7%</text>
            </g>
        </g>
        <g color="#dedede" transform="translate(0 90)">
            <rect id="deck_brightness" x="0" y="5" width="197" height="5" stroke="none" fill="currentColor" rx="0" ry="0"/>
        </g>
    </g>
</svg>
